# xmcd
#
# Track frame offsets: 
#        150
#        13950
#        33145
#        53314
#        72435
#        90129
#        100742
#        126552
#        142335
#        158427
#        179390
#        197732
#
# Disc length: 2860 seconds
#
# Revision: 0
# Processed by: cddbd v1.5.2PL0 Copyright (c) Steve Scherf et al.
# Submitted via: ExactAudioCopy v0.95a5
#
DISCID=9a0b2a0c
DTITLE=Kenny Traylor  - Somethin's Gotta Change
DYEAR=1999
DGENRE=Blues
TTITLE0=Sweet Little Mama
TTITLE1=Third Time Wrong
TTITLE2=Leavin' In The Mornin'
TTITLE3=Short Shot
TTITLE4=Sneakin' Around
TTITLE5=Hear Me Callin'
TTITLE6=Somethin's Gotta Change
TTITLE7=Don't Give Up On Me
TTITLE8=Loud Mouth Lucy
TTITLE9=Sometimes I Think Too Much
TTITLE10=Inside Out
TTITLE11=Not Foolin' Around
EXTD=
EXTT0=
EXTT1=
EXTT2=
EXTT3=
EXTT4=
EXTT5=
EXTT6=
EXTT7=
EXTT8=
EXTT9=
EXTT10=
EXTT11=
PLAYORDER=
